<?xml version="1.0" standalone="no"?>
<!DOCTYPE svg PUBLIC "-//W3C//DTD SVG 20010904//EN"
 "http://www.w3.org/TR/2001/REC-SVG-20010904/DTD/svg10.dtd">
<svg version="1.0" xmlns="http://www.w3.org/2000/svg"
 width="663.000000pt" height="738.000000pt" viewBox="0 0 663.000000 738.000000"
 preserveAspectRatio="xMidYMid meet">
<metadata>
Created by potrace 1.10, written by Peter Selinger 2001-2011
</metadata>
<g transform="translate(0.000000,738.000000) scale(0.100000,-0.100000)"
fill="#cac6c6" stroke="none">
<path d="M2985 7320 c-11 -5 -33 -9 -50 -9 -16 -1 -43 -8 -59 -16 -15 -8 -36
-15 -46 -15 -10 0 -23 -7 -30 -15 -7 -8 -19 -15 -26 -15 -16 0 -153 -80 -208
-122 -77 -58 -203 -195 -264 -287 -34 -51 -62 -98 -62 -105 0 -8 -7 -19 -15
-26 -8 -7 -15 -20 -15 -29 0 -9 -7 -25 -15 -35 -8 -11 -15 -29 -15 -41 0 -12
-4 -25 -10 -31 -12 -12 -29 -87 -37 -162 -6 -58 -3 -55 -128 -107 -47 -19
-297 -145 -330 -166 -16 -10 -39 -23 -50 -29 -132 -70 -332 -217 -519 -380
-71 -62 -260 -254 -300 -305 -22 -28 -45 -54 -51 -60 -17 -16 -165 -213 -165
-221 0 -3 -14 -23 -30 -44 -17 -21 -30 -40 -30 -43 0 -3 -16 -29 -36 -58 -20
-30 -43 -67 -51 -84 -7 -16 -22 -43 -33 -60 -11 -16 -22 -37 -26 -45 -3 -8
-10 -22 -15 -30 -5 -8 -12 -22 -15 -30 -3 -8 -10 -22 -15 -30 -5 -8 -12 -22
-15 -30 -3 -8 -13 -31 -22 -50 -8 -19 -22 -51 -30 -70 -8 -19 -21 -47 -29 -62
-7 -14 -13 -34 -13 -45 0 -10 -7 -27 -15 -37 -8 -11 -15 -29 -15 -40 0 -12 -7
-30 -15 -40 -8 -11 -15 -30 -15 -42 0 -12 -7 -35 -15 -50 -8 -16 -15 -39 -15
-52 0 -13 -5 -33 -12 -45 -6 -12 -15 -40 -19 -62 -4 -22 -13 -62 -19 -90 -54
-242 -55 -256 -54 -730 0 -454 6 -534 54 -725 6 -25 15 -65 20 -90 4 -25 13
-61 20 -80 21 -61 31 -94 40 -125 13 -48 31 -98 46 -128 8 -16 14 -35 14 -44
0 -8 6 -27 13 -41 8 -15 21 -43 29 -62 20 -45 116 -240 128 -260 5 -8 11 -22
14 -30 4 -8 15 -28 26 -45 11 -16 24 -39 30 -50 17 -32 31 -54 94 -150 152
-232 357 -461 602 -674 113 -98 371 -281 494 -349 113 -64 345 -175 430 -207
25 -10 57 -23 72 -31 14 -8 35 -14 46 -14 11 0 33 -6 49 -14 15 -8 55 -22 88
-31 33 -9 76 -22 95 -28 19 -6 53 -14 75 -18 22 -4 60 -12 85 -18 141 -31 288
-40 382 -25 l37 7 -36 18 c-20 10 -53 22 -72 25 -20 3 -79 16 -131 29 -52 13
-120 28 -150 35 -124 26 -480 143 -575 189 -22 11 -92 45 -155 75 -63 31 -122
60 -130 65 -8 5 -49 29 -90 52 -148 85 -333 219 -475 343 -106 93 -312 302
-343 349 -13 20 -27 37 -31 37 -6 0 -112 142 -165 220 -65 97 -208 344 -236
410 -18 41 -36 80 -40 85 -4 6 -23 48 -43 95 -94 230 -174 515 -207 735 -9 59
-16 98 -38 220 -20 106 -31 159 -44 213 -10 45 -10 61 6 115 25 87 45 185 62
302 27 184 73 402 110 516 61 192 155 439 179 469 7 8 24 40 38 70 51 106 175
315 232 390 19 25 44 62 55 83 11 20 25 37 30 37 5 0 16 13 25 30 8 16 37 53
64 82 26 29 77 84 112 123 77 84 320 305 357 324 15 7 41 26 57 41 42 38 141
111 198 146 131 80 286 164 302 164 8 0 17 5 20 10 8 14 61 35 107 44 44 8 43
10 59 -124 6 -52 20 -122 30 -155 11 -33 24 -76 31 -95 16 -51 79 -180 88
-180 5 0 16 -20 26 -45 9 -25 23 -45 30 -45 21 0 27 -39 10 -65 -9 -13 -16
-28 -16 -34 0 -5 -87 -97 -192 -205 -106 -107 -202 -204 -213 -216 -34 -34
-416 -404 -423 -410 -4 -3 -20 -24 -35 -47 -15 -24 -32 -43 -38 -43 -8 0 -296
-274 -356 -340 -46 -50 -180 -184 -308 -310 -155 -153 -230 -242 -241 -287 -4
-14 -18 -42 -31 -61 -12 -19 -23 -39 -23 -44 0 -6 -8 -17 -19 -26 -20 -18 -41
-72 -41 -106 0 -12 -8 -34 -17 -51 -15 -25 -18 -58 -18 -201 0 -115 4 -175 12
-185 6 -8 14 -32 18 -54 12 -79 28 -126 45 -135 10 -5 21 -21 24 -36 7 -28 51
-98 79 -126 9 -10 17 -22 17 -27 0 -5 48 -55 106 -112 59 -57 140 -137 180
-176 40 -40 77 -73 82 -73 5 0 14 -11 20 -25 6 -14 16 -25 22 -25 5 0 34 -26
63 -57 28 -31 252 -256 497 -501 245 -244 450 -448 455 -453 6 -6 116 -117
245 -247 129 -131 263 -270 298 -309 76 -87 247 -239 309 -275 25 -14 49 -32
54 -39 7 -12 25 -20 134 -57 107 -37 332 -60 415 -43 30 7 92 18 138 27 46 8
103 23 127 34 24 11 48 20 53 20 4 0 24 12 43 26 19 14 44 30 57 35 12 5 22
13 22 19 0 5 18 19 40 30 22 11 148 127 283 260 133 132 312 309 398 392 86
84 192 192 235 240 43 49 84 88 89 88 6 0 27 16 45 35 19 20 66 57 104 83 75
50 209 181 254 247 66 97 112 147 406 440 262 261 436 453 436 482 0 4 12 24
27 46 35 51 73 140 84 202 6 28 15 73 20 100 21 99 -4 345 -45 437 -13 29 -26
66 -30 82 -4 17 -17 43 -28 59 -32 45 -31 117 3 154 32 33 93 162 121 253 22
72 35 319 19 355 -40 87 -51 115 -56 150 -4 22 -13 49 -20 60 -7 11 -16 35
-19 53 -4 17 -12 34 -16 37 -5 3 -37 47 -71 98 -34 51 -106 136 -160 190 -53
54 -114 123 -136 154 -21 31 -51 70 -68 87 -16 17 -34 40 -40 51 -7 14 -24 22
-55 25 -43 5 -45 6 -43 36 3 30 -14 57 -33 53 -27 -5 -44 3 -44 20 0 16 -116
141 -207 221 -108 97 -509 523 -515 548 -5 17 -2 18 26 9 62 -19 166 -74 179
-94 4 -6 27 -19 52 -29 25 -9 45 -20 45 -25 0 -5 34 -32 76 -61 120 -84 147
-105 239 -184 109 -93 359 -352 401 -414 13 -19 40 -55 59 -80 19 -25 49 -66
65 -92 17 -25 37 -48 44 -51 7 -3 16 -17 20 -31 3 -14 19 -45 35 -68 44 -68
91 -148 91 -159 0 -13 70 -160 85 -179 18 -23 84 -177 104 -245 10 -33 25 -76
34 -95 33 -78 97 -315 97 -363 0 -13 6 -43 14 -68 7 -24 18 -62 24 -84 30
-118 65 -216 74 -207 12 12 4 290 -10 377 -15 88 -49 228 -74 300 -5 17 -13
44 -18 60 -13 48 -31 98 -46 128 -8 16 -14 35 -14 44 0 8 -6 27 -13 41 -13 25
-29 60 -64 142 -8 19 -19 42 -24 50 -5 8 -12 22 -15 30 -3 8 -10 22 -15 30 -5
8 -12 22 -15 30 -3 8 -10 22 -15 30 -5 8 -12 22 -16 30 -5 12 -98 168 -146
245 -26 42 -217 294 -258 340 -56 64 -280 288 -344 344 -52 46 -321 251 -329
251 -3 0 -33 19 -68 43 -35 23 -83 53 -108 67 -25 13 -72 39 -105 57 -33 18
-67 35 -75 39 -8 3 -22 10 -30 15 -8 5 -22 12 -30 15 -8 4 -43 19 -78 35 -34
16 -66 29 -71 29 -5 0 -23 7 -40 15 -17 8 -45 22 -62 30 -17 8 -37 15 -46 15
-8 0 -28 8 -44 17 -25 15 -29 23 -29 63 0 71 -58 229 -120 325 -11 17 -23 37
-26 45 -12 26 -117 153 -164 199 -42 40 -170 140 -215 168 -136 83 -251 123
-379 130 -90 5 -110 -5 -71 -35 26 -21 40 -26 195 -77 47 -15 96 -35 110 -44
34 -21 77 -45 129 -72 57 -29 229 -194 284 -273 86 -121 101 -152 158 -321 38
-109 46 -125 64 -125 20 0 55 -49 55 -76 0 -13 -13 -42 -29 -66 -36 -54 -46
-87 -67 -218 -9 -58 -21 -112 -25 -120 -4 -8 -18 -42 -29 -75 -12 -33 -27 -67
-34 -75 -7 -8 -36 -62 -65 -120 -47 -93 -51 -105 -36 -116 30 -22 -7 -76 -159
-230 -80 -81 -146 -150 -146 -154 0 -4 -10 -15 -21 -26 -12 -10 -33 -37 -47
-59 -14 -22 -31 -44 -38 -48 -8 -4 -14 -12 -14 -18 0 -5 -12 -28 -27 -52 -29
-44 -38 -60 -82 -141 -63 -116 -103 -166 -166 -206 -30 -19 -54 -40 -55 -47 0
-7 -11 -37 -25 -67 -14 -30 -25 -59 -25 -64 0 -5 -11 -17 -24 -26 -24 -15 -26
-15 -48 17 -13 17 -35 57 -50 87 -20 43 -28 51 -33 38 -4 -10 -11 -18 -15 -18
-11 0 -87 72 -94 90 -3 8 -5 1 -3 -17 l3 -32 -65 -4 c-36 -3 -88 -8 -116 -11
-27 -2 -83 -8 -122 -11 -40 -4 -75 -11 -78 -16 -8 -11 -59 -2 -119 23 -27 11
-63 21 -80 23 -17 2 -51 10 -76 18 -25 8 -71 20 -104 26 -32 6 -63 17 -70 25
-21 26 -185 -9 -266 -58 -25 -14 -59 -33 -76 -41 -17 -8 -34 -20 -37 -28 -3
-8 -29 -30 -59 -50 -29 -20 -69 -51 -89 -70 -45 -42 -89 -128 -89 -174 0 -31
-2 -34 -15 -23 -9 7 -18 10 -22 6 -3 -3 -13 0 -22 8 -9 7 -38 20 -64 29 -45
15 -51 15 -75 -1 -44 -28 -92 -85 -92 -110 0 -12 5 -30 10 -40 6 -9 21 -53 33
-98 29 -101 24 -122 -47 -196 -51 -54 -86 -123 -86 -170 0 -30 30 -81 61 -106
16 -13 29 -29 29 -35 0 -7 4 -19 9 -26 8 -12 13 -11 29 10 18 22 23 23 51 12
30 -11 32 -10 46 18 9 16 19 29 24 29 5 0 43 25 84 55 97 71 154 89 277 89 78
-1 107 -5 163 -27 96 -36 227 -141 227 -181 0 -7 9 -21 19 -30 66 -60 69 -354
5 -407 -8 -6 -14 -20 -14 -31 0 -19 -21 -58 -51 -93 -9 -11 -19 -32 -23 -47
-3 -15 -17 -39 -31 -54 -14 -15 -25 -32 -25 -38 0 -7 -13 -27 -30 -46 -16 -19
-29 -40 -30 -47 0 -6 -12 -26 -27 -44 -16 -18 -37 -47 -48 -65 -58 -94 -98
-145 -108 -135 -7 7 -16 7 -29 0 -10 -5 -23 -7 -29 -3 -8 4 -9 -3 -4 -25 4
-20 2 -37 -5 -46 -8 -10 -12 -79 -13 -222 -1 -193 1 -211 21 -254 20 -44 58
-191 69 -271 3 -23 11 -38 19 -38 10 0 12 -8 7 -31 -5 -25 -2 -31 15 -36 12
-3 24 -13 27 -24 3 -10 20 -30 38 -45 31 -26 34 -27 129 -21 80 5 104 10 137
32 22 14 47 25 56 25 8 0 28 18 43 40 15 21 32 39 37 40 14 0 82 139 90 184 8
42 12 45 60 51 26 4 35 1 35 -10 0 -25 82 -105 107 -105 36 0 67 19 93 58 14
20 31 43 37 50 7 7 13 23 13 36 0 12 4 26 8 31 11 13 29 78 37 135 8 53 -15
121 -52 159 -18 18 -29 22 -50 16 -52 -13 -115 -17 -124 -8 -5 5 -13 32 -19
61 -16 87 1 128 107 256 51 61 93 119 93 129 0 21 30 77 41 77 4 0 7 10 7 23
0 12 3 51 7 87 8 68 26 94 86 125 14 8 38 32 54 54 15 23 32 41 36 41 5 0 9 6
9 14 0 8 18 29 40 46 50 40 70 36 127 -22 32 -32 46 -58 57 -102 9 -33 20 -64
26 -70 5 -5 10 -17 10 -26 0 -25 31 -83 52 -98 10 -7 18 -19 18 -27 0 -20 58
-65 84 -65 12 0 36 15 54 33 31 32 102 158 102 181 0 7 16 29 35 49 19 20 35
41 35 46 0 6 9 15 20 21 32 17 77 -7 94 -50 15 -36 58 -87 89 -105 11 -6 21
-31 27 -68 8 -49 7 -61 -8 -77 -52 -57 -59 -80 -38 -125 9 -19 21 -37 26 -40
6 -3 10 -15 10 -25 0 -11 16 -53 36 -94 36 -77 91 -136 127 -136 10 0 31 -7
47 -15 35 -18 46 -14 83 31 23 27 29 44 30 86 0 32 -6 66 -16 85 -31 58 -48
142 -34 166 38 70 75 124 94 140 13 10 23 26 23 36 0 9 7 27 16 39 11 16 14
36 9 79 -7 71 13 110 71 138 22 10 43 24 47 31 4 8 13 14 20 14 7 0 24 11 39
25 15 14 32 25 38 25 5 0 10 7 10 16 0 9 14 32 30 51 17 18 30 44 30 57 0 12
3 26 7 30 5 4 12 26 18 49 12 51 40 59 86 27 22 -17 38 -21 62 -16 18 4 39 7
49 7 9 0 24 9 34 20 9 10 25 19 35 19 10 0 21 5 24 10 3 6 15 10 26 10 10 0
27 9 36 20 10 11 25 20 34 20 26 0 57 46 75 109 12 41 28 68 60 100 24 24 44
54 44 65 0 21 -24 65 -43 78 -7 4 -6 27 1 64 15 71 15 121 2 129 -5 3 -10 23
-10 44 0 31 5 40 25 49 14 7 41 12 60 12 41 0 79 -41 95 -103 17 -64 18 -67
34 -67 22 0 29 34 21 110 -5 52 -3 74 9 98 19 36 47 55 71 46 28 -11 95 -80
95 -98 0 -20 -137 -156 -157 -156 -7 0 -13 -7 -13 -15 0 -10 10 -15 34 -15 27
0 45 10 85 48 31 29 51 57 51 70 0 32 28 43 61 23 33 -20 99 -98 99 -116 0 -8
7 -18 16 -23 10 -6 17 -25 19 -51 1 -29 9 -47 22 -56 11 -8 26 -28 33 -45 9
-21 22 -33 41 -37 16 -3 31 -14 34 -24 4 -11 20 -21 41 -25 41 -7 144 -61 144
-75 0 -5 14 -28 30 -51 17 -22 30 -46 30 -53 0 -6 15 -42 34 -81 19 -38 37
-94 41 -124 4 -30 13 -80 21 -110 18 -70 18 -139 -1 -183 -8 -20 -18 -62 -21
-94 -4 -32 -14 -69 -23 -83 -9 -14 -27 -46 -41 -72 -42 -78 -82 -141 -119
-188 -54 -68 -287 -309 -414 -427 -25 -23 -47 -46 -49 -50 -1 -5 -52 -52 -112
-106 -71 -63 -118 -97 -132 -97 -23 0 -46 28 -48 60 -2 20 -25 86 -42 118 -12
25 -12 28 11 42 30 18 33 40 4 40 -21 0 -82 53 -91 80 -5 13 -12 12 -49 -8
-53 -27 -77 -28 -87 -4 -28 65 -71 110 -93 96 -15 -9 -10 -25 21 -64 38 -48
38 -65 0 -84 -30 -14 -31 -14 -42 9 -9 20 -16 23 -36 18 -17 -4 -29 -1 -37 11
-11 15 -14 14 -28 -8 -9 -13 -41 -44 -72 -68 -43 -33 -65 -43 -98 -45 -23 -1
-51 -3 -62 -4 -12 -1 -28 -14 -38 -30 -9 -16 -25 -29 -35 -29 -11 0 -25 -7
-32 -15 -7 -8 -16 -15 -21 -15 -25 0 -156 -129 -172 -169 -17 -42 -12 -77 30
-196 13 -38 29 -92 34 -120 7 -30 21 -61 37 -78 25 -27 31 -28 102 -25 81 2
123 14 202 54 40 20 55 23 78 16 21 -8 31 -7 42 4 12 12 17 12 36 -2 35 -24
28 -60 -25 -123 -52 -62 -444 -461 -453 -461 -7 0 -240 -229 -241 -238 -1 -6
-97 -97 -265 -253 -12 -10 -25 -19 -30 -19 -5 0 -25 -13 -44 -29 -19 -15 -52
-33 -72 -40 -20 -7 -48 -21 -61 -31 -15 -12 -55 -24 -98 -31 -41 -6 -92 -17
-114 -25 -54 -19 -214 -18 -274 1 -25 8 -73 20 -106 26 -33 7 -67 18 -75 25
-8 6 -40 24 -70 39 -30 15 -79 46 -110 68 -56 42 -282 254 -289 272 -2 6 -27
33 -55 62 -28 28 -56 57 -63 65 -15 17 -354 356 -371 371 -71 65 -952 951
-952 958 0 5 -4 9 -9 9 -13 0 -91 76 -91 89 0 6 -8 15 -17 20 -23 12 -413 396
-413 406 0 5 -11 23 -24 40 -14 18 -28 44 -32 59 -3 15 -14 31 -24 36 -9 5
-23 31 -30 57 -7 26 -17 53 -22 59 -16 21 -33 179 -32 295 2 93 6 123 22 155
10 21 25 63 33 92 9 37 18 52 30 52 12 0 19 12 24 41 4 22 13 43 21 46 8 3 19
23 25 45 8 32 47 76 207 237 108 109 205 201 214 204 10 4 18 12 18 18 0 13
445 455 467 463 7 3 13 9 13 14 0 11 448 459 466 466 8 3 14 9 14 14 0 14 437
445 466 460 13 7 24 14 24 16 0 3 -22 28 -50 57 -27 29 -52 61 -56 71 -3 10
-9 18 -14 18 -4 0 -11 11 -14 25 -4 14 -11 25 -16 25 -5 0 -19 21 -30 48 -23
50 -48 107 -60 132 -4 9 -11 35 -15 59 -4 24 -13 58 -19 75 -17 43 -14 292 4
328 7 15 26 33 42 40 21 10 31 24 39 53 40 154 93 288 146 363 158 223 179
244 357 355 112 69 236 119 331 132 28 4 65 14 84 21 18 8 41 14 51 14 9 0 25
8 34 19 15 17 15 19 1 25 -24 9 -207 6 -230 -4z m1926 -1520 c251 -253 461
-460 468 -460 12 0 82 -64 159 -144 26 -27 63 -65 83 -85 19 -20 51 -56 69
-81 19 -25 47 -58 62 -74 15 -16 30 -37 33 -46 3 -9 23 -24 44 -33 74 -33 236
-227 289 -348 47 -107 54 -129 49 -150 -4 -14 1 -31 14 -47 17 -22 19 -41 19
-158 0 -149 -20 -256 -64 -344 -39 -77 -117 -190 -131 -190 -7 0 -22 14 -33
31 -24 38 -200 219 -213 219 -22 0 -5 33 42 80 28 28 49 56 47 63 -2 6 -109
117 -239 245 l-236 233 -56 -48 c-77 -65 -75 -78 18 -170 41 -40 75 -78 75
-84 0 -5 -21 -19 -46 -29 -37 -16 -69 -20 -170 -20 -135 0 -144 -3 -237 -69
-32 -24 -47 -41 -47 -57 0 -21 3 -22 54 -17 30 3 70 3 89 -1 l36 -7 3 -95 c2
-53 0 -101 -3 -106 -12 -18 -35 -2 -53 37 -10 20 -22 35 -28 33 -6 -2 -19 -24
-28 -48 -23 -59 -76 -111 -136 -133 -80 -30 -113 -49 -129 -74 -14 -21 -14
-26 0 -45 8 -13 15 -37 15 -56 0 -34 -25 -82 -43 -82 -24 0 -47 34 -47 71 0
32 -6 43 -44 73 -25 21 -54 36 -69 36 -29 0 -67 -27 -67 -47 0 -15 32 -33 60
-33 31 0 36 -27 9 -56 l-23 -24 22 -53 c12 -29 22 -72 22 -97 0 -79 -77 -166
-195 -219 -83 -37 -80 -34 -77 -85 4 -50 -7 -59 -40 -29 -11 10 -18 30 -18 54
0 50 -13 56 -44 18 -34 -40 -33 -51 7 -96 84 -96 88 -130 26 -207 -24 -29 -49
-62 -56 -72 -12 -18 -13 -18 -33 5 -11 13 -20 30 -20 38 0 23 -38 90 -55 97
-24 9 -35 -1 -35 -35 0 -18 -5 -29 -14 -29 -14 0 -27 42 -42 140 -4 22 -10 40
-14 40 -4 0 -18 -16 -31 -35 -37 -55 -55 -43 -51 35 3 60 1 68 -29 108 -38 49
-62 53 -130 22 -52 -23 -99 -64 -121 -105 -25 -47 -48 -102 -48 -116 0 -22
-51 -164 -64 -177 -18 -19 -42 7 -57 61 -6 23 -14 47 -19 52 -4 6 -10 21 -13
35 -3 14 -17 59 -31 100 -14 41 -26 86 -26 100 0 18 -20 45 -72 95 l-72 70
-72 -3 c-61 -2 -84 2 -165 33 -52 20 -114 52 -139 71 -32 25 -52 34 -70 31
-15 -3 -36 3 -55 16 -33 24 -62 42 -85 53 -8 4 -17 11 -20 15 -3 4 -45 29 -94
54 -71 37 -97 45 -130 43 l-41 -3 40 -24 c22 -13 60 -35 85 -49 25 -13 64 -37
88 -53 24 -16 45 -29 48 -29 2 0 23 -12 45 -26 27 -17 50 -24 67 -21 25 5 61
-24 99 -81 20 -30 76 -53 111 -46 32 6 120 -28 128 -50 3 -9 -1 -23 -10 -31
-9 -9 -16 -21 -16 -26 0 -18 -61 -92 -97 -119 -62 -44 -212 -99 -274 -100 -10
0 -19 11 -22 28 -8 43 -41 124 -78 188 -19 32 -43 79 -53 104 -39 97 -46 110
-60 110 -8 0 -17 -4 -21 -9 -6 -10 42 -209 55 -226 4 -5 10 -23 14 -38 4 -15
31 -55 61 -87 41 -45 56 -70 61 -101 4 -22 13 -43 21 -46 8 -3 47 4 86 16 120
35 145 28 112 -35 -8 -16 -15 -37 -15 -47 0 -32 -73 -134 -158 -220 -45 -46
-82 -88 -82 -92 0 -5 -7 -17 -17 -27 -21 -24 -21 -123 1 -166 34 -67 13 -182
-41 -225 -26 -20 -42 -54 -79 -162 -52 -153 -74 -200 -119 -253 -44 -50 -79
-70 -160 -89 -120 -28 -119 -28 -137 9 -36 73 -78 220 -78 270 0 12 -7 36 -15
52 -8 15 -15 33 -15 39 0 6 -6 18 -13 26 -21 25 -50 136 -44 168 3 15 13 48
22 73 19 50 13 131 -11 151 -27 22 -16 53 28 82 26 17 58 52 83 92 22 35 67
103 100 150 69 99 90 132 105 160 6 11 24 43 40 70 39 63 104 199 119 247 6
20 13 88 15 152 3 103 1 126 -20 188 -14 40 -23 77 -20 83 7 20 -155 171 -219
203 -119 60 -238 75 -365 48 -108 -23 -152 -49 -264 -158 -33 -32 -66 -58 -74
-58 -25 0 -79 39 -85 62 -13 48 20 137 60 163 18 12 32 13 78 3 62 -12 70 -9
79 38 8 35 -12 64 -43 64 -10 0 -21 3 -24 7 -11 11 14 33 38 33 36 0 85 21 85
36 0 11 -16 14 -63 14 -36 0 -68 5 -75 12 -16 16 -15 46 3 64 21 21 19 26 -16
49 -17 11 -37 32 -44 46 -14 26 -13 28 24 53 30 21 44 25 72 20 50 -10 62 -22
54 -61 -6 -33 16 -93 34 -93 5 0 15 -16 21 -35 13 -40 29 -44 55 -15 10 11 23
20 29 20 22 0 86 51 86 69 0 10 6 24 14 30 11 9 21 6 47 -16 31 -26 39 -28
127 -28 74 0 96 3 105 16 20 27 138 109 157 109 34 0 50 12 50 36 0 21 -4 24
-40 24 -23 0 -52 -7 -65 -16 -34 -22 -51 -13 -62 33 -9 40 -44 62 -78 49 -15
-6 -17 -15 -11 -71 8 -75 -1 -98 -44 -120 -46 -24 -78 -19 -111 16 -29 31 -36
32 -94 14 -33 -10 -55 15 -62 73 -6 53 -6 53 40 95 25 23 62 51 83 62 22 11
82 51 134 90 130 96 156 108 221 103 30 -3 79 -15 109 -27 108 -44 174 -61
231 -61 l59 0 0 -39 c0 -50 18 -56 64 -23 32 22 51 26 152 33 64 5 130 12 147
18 18 5 73 11 122 13 l90 3 23 -70 c56 -168 92 -310 92 -362 0 -36 3 -43 20
-43 25 0 40 29 40 79 0 39 27 163 51 231 22 64 41 115 55 148 8 18 14 38 14
45 0 7 14 25 30 41 17 16 30 33 30 38 0 4 9 8 20 8 11 0 20 -4 20 -10 0 -16
25 -12 77 14 107 52 173 71 328 91 115 15 312 19 379 7 33 -6 41 -13 50 -39
20 -58 20 -58 188 -45 l153 13 25 -30 c14 -16 32 -39 40 -51 l15 -21 103 21
c57 11 105 20 107 20 2 0 9 16 14 37 10 34 8 38 -28 75 -21 21 -42 38 -46 38
-4 0 -5 -18 -1 -40 l6 -41 -29 16 c-40 20 -49 19 -53 -7 -4 -27 -45 -38 -54
-14 -7 19 -60 46 -90 46 -13 0 -26 5 -29 10 -4 6 -41 10 -88 9 -90 -2 -142 7
-202 38 -22 11 -65 26 -95 32 -99 21 -341 7 -423 -24 -40 -16 -77 -20 -77 -7
0 4 17 18 38 32 20 14 51 37 67 52 17 16 36 28 43 28 6 0 12 5 12 10 0 14 -21
12 -39 -3 -9 -8 -32 -20 -51 -27 -64 -23 -139 -60 -145 -70 -4 -6 -21 -10 -40
-8 -18 1 -45 -6 -60 -16 -31 -20 -41 -16 -27 11 5 10 18 36 28 58 10 22 39 68
64 102 25 35 67 94 95 133 27 38 53 70 57 70 4 0 8 6 8 14 0 22 222 258 267
283 19 11 24 10 35 -6 8 -11 26 -25 41 -32 15 -7 27 -16 27 -21 0 -5 24 -35
54 -66 62 -66 90 -115 81 -142 -8 -24 17 -26 55 -5 30 16 50 4 50 -31 0 -14
10 -30 26 -41 14 -9 30 -27 35 -40 8 -20 13 -22 54 -16 28 3 45 2 45 -5 0 -5
16 -13 35 -16 25 -5 56 -27 108 -76 39 -39 74 -70 77 -70 3 0 19 -16 36 -36
28 -34 32 -36 55 -24 31 16 99 81 99 95 0 6 -19 29 -41 50 -23 22 -68 72 -102
110 -33 39 -74 79 -90 89 l-30 20 -57 -65 c-55 -60 -59 -63 -77 -48 -10 9 -33
29 -52 45 -18 16 -59 61 -89 99 -30 39 -83 98 -116 131 -84 84 -216 223 -216
227 0 2 16 21 36 42 44 49 90 128 131 225 57 135 69 187 82 340 9 103 22 140
49 140 9 0 222 -207 473 -460z m206 -2056 c46 -35 44 -59 -9 -73 -64 -16 -68
-21 -73 -95 -2 -37 -7 -71 -9 -75 -3 -5 -49 -29 -101 -55 -53 -26 -114 -58
-135 -71 -51 -32 -60 -31 -60 5 0 60 57 110 145 125 63 11 82 28 89 80 13 82
70 185 103 185 9 0 31 -11 50 -26z m-1099 -1037 c56 -61 111 -214 83 -231 -22
-14 -11 -42 24 -60 19 -11 35 -26 36 -35 0 -9 3 -38 5 -66 6 -77 3 -79 -73
-39 -73 38 -83 47 -83 81 0 52 -33 119 -81 166 -90 89 -47 124 45 37 56 -53
66 -58 66 -36 0 18 -71 160 -82 164 -9 4 -11 36 -2 44 9 10 42 -3 62 -25z
m1069 -634 c16 -27 44 -79 63 -117 27 -53 44 -74 78 -93 25 -15 42 -32 42 -43
0 -21 -48 -78 -160 -191 -164 -165 -260 -233 -260 -184 0 8 -13 29 -29 47 -26
29 -35 33 -75 31 -32 -1 -62 -11 -98 -33 -52 -32 -127 -60 -163 -60 -11 0 -33
-7 -49 -15 -63 -33 -87 -3 -49 63 19 33 20 29 -49 180 -41 90 -38 113 18 150
25 17 59 34 75 37 29 7 119 98 119 121 0 20 44 26 55 8 6 -9 18 -27 29 -41
l19 -25 45 44 c24 24 60 67 79 96 37 57 55 63 87 30 63 -65 138 -128 153 -128
14 0 15 10 10 79 -3 43 -3 81 0 85 15 15 33 3 60 -41z m-2304 -49 c-3 -66 -20
-143 -49 -212 -8 -18 -14 -45 -14 -59 0 -34 -26 -63 -56 -63 -41 0 -64 62 -64
174 0 94 0 96 28 110 15 8 41 29 57 46 69 70 80 80 90 76 6 -2 9 -33 8 -72z"/>
<path d="M5250 5081 c-149 -149 -210 -215 -210 -226 0 -3 17 -5 38 -5 32 0 47
8 93 50 29 27 57 50 62 50 4 0 7 6 7 13 0 13 116 117 131 117 5 0 23 29 39 64
29 61 31 98 6 95 -6 -1 -81 -72 -166 -158z"/>
<path d="M5465 5081 c-16 -11 -49 -39 -72 -63 -23 -23 -65 -67 -94 -97 -29
-29 -70 -77 -91 -105 -33 -43 -38 -56 -33 -86 5 -33 2 -38 -47 -77 -29 -24
-59 -43 -65 -43 -21 0 -15 -13 28 -65 64 -78 74 -81 123 -32 45 46 68 81 61
98 -3 8 -21 25 -40 39 -53 38 -54 58 -9 98 132 118 334 325 334 342 0 17 -63
11 -95 -9z"/>
<path d="M4287 5083 c-4 -3 -7 -10 -7 -14 0 -9 39 1 46 12 6 10 -29 12 -39 2z"/>
<path d="M4100 4960 c0 -5 7 -10 15 -10 8 0 15 5 15 10 0 6 -7 10 -15 10 -8 0
-15 -4 -15 -10z"/>
<path d="M5617 4748 c-72 -67 -136 -128 -140 -135 -10 -16 75 -113 230 -264
154 -150 240 -222 256 -212 18 11 116 120 146 161 13 18 20 36 17 39 -9 9 -82
-27 -107 -53 -19 -21 -29 -23 -81 -19 -53 4 -62 8 -91 41 -18 20 -47 52 -64
70 -18 18 -33 38 -33 44 0 6 -13 16 -30 21 -16 6 -30 17 -30 24 0 7 -11 20
-24 28 -47 31 -56 47 -56 97 0 45 4 53 49 100 27 27 54 50 60 50 6 0 11 7 11
15 0 8 9 24 19 34 27 27 38 81 17 81 -9 0 -76 -55 -149 -122z"/>
<path d="M2730 3806 c-43 -21 -45 -24 -43 -61 3 -42 23 -69 66 -91 l27 -15
-25 -33 c-33 -44 -33 -76 0 -76 13 0 35 -5 49 -11 33 -15 53 0 62 49 8 42 -14
89 -57 121 -16 12 -29 26 -29 31 0 5 20 21 45 36 49 28 53 35 29 58 -21 22
-71 19 -124 -8z"/>
<path d="M2255 3763 c-35 -62 -44 -117 -20 -126 9 -4 26 -2 38 4 18 10 218 8
268 -3 31 -7 20 39 -18 73 -21 19 -44 47 -50 62 -16 34 -39 35 -65 2 -25 -32
-36 -31 -76 5 -18 17 -37 30 -42 30 -4 0 -20 -21 -35 -47z"/>
<path d="M2745 3133 c-3 -16 -13 -35 -21 -44 -15 -17 -40 -146 -30 -156 25
-25 96 169 79 214 -8 21 -20 15 -28 -14z"/>
<path d="M2459 2728 c-24 -17 -46 -34 -49 -38 -5 -7 -125 -80 -191 -117 -35
-19 -101 -66 -139 -100 -8 -7 -42 -33 -74 -58 -115 -87 7 -38 165 67 47 31
114 71 149 89 73 37 129 77 178 126 18 18 37 33 42 33 6 0 10 7 10 15 0 25
-44 17 -91 -17z"/>
<path d="M3027 7180 c-54 -16 -117 -38 -141 -49 -23 -12 -47 -21 -53 -21 -5 0
-31 -20 -57 -45 -27 -25 -56 -45 -65 -45 -10 0 -23 -10 -30 -22 -7 -13 -42
-47 -77 -76 -72 -61 -156 -175 -201 -272 -57 -127 -63 -141 -63 -165 0 -13
-10 -63 -21 -112 -17 -72 -20 -107 -16 -188 5 -90 37 -240 66 -318 6 -16 11
-39 11 -51 0 -13 9 -31 19 -40 11 -10 22 -30 26 -44 3 -15 14 -36 24 -47 10
-11 34 -47 54 -80 91 -150 299 -301 499 -361 80 -24 113 -29 233 -31 129 -2
149 0 255 28 63 17 122 37 130 44 8 8 35 23 60 34 25 12 59 31 75 44 17 12 49
37 73 54 109 80 246 240 271 316 7 19 19 41 27 47 7 7 14 20 14 30 0 10 7 37
16 61 33 92 46 158 53 264 6 108 -8 280 -28 335 -5 14 -15 48 -22 75 -13 52
-78 179 -131 253 -49 69 -207 220 -239 227 -15 4 -34 17 -43 29 -18 28 -145
96 -201 107 -22 5 -69 15 -105 23 -36 7 -121 16 -190 19 -117 6 -131 4 -223
-23z m378 -69 c106 -23 137 -33 230 -78 142 -69 213 -128 310 -258 129 -172
185 -344 185 -567 0 -129 -7 -177 -47 -303 -25 -83 -111 -248 -143 -275 -3 -3
-23 -26 -44 -52 -72 -90 -203 -183 -316 -226 -145 -54 -159 -56 -335 -56 -186
0 -226 8 -360 76 -201 101 -383 312 -447 518 -40 130 -47 160 -51 250 -13 229
37 413 166 612 50 78 192 218 247 246 25 13 52 27 60 32 25 15 103 47 140 59
148 45 266 51 405 22z"/>
<path d="M2783 6913 c-51 -7 -57 -27 -49 -187 3 -78 9 -212 12 -298 7 -152 8
-158 34 -190 18 -21 44 -38 74 -47 25 -7 46 -18 46 -25 0 -6 1 -156 3 -333 4
-279 6 -326 21 -347 23 -36 50 -39 136 -17 l75 19 1 343 2 344 23 12 c13 7 32
13 42 13 32 0 79 41 97 84 14 36 17 79 16 336 l-1 295 -62 3 c-76 4 -84 -7
-73 -93 4 -33 10 -153 14 -267 l6 -207 -45 -7 c-79 -11 -74 -28 -77 288 l-3
283 -54 3 c-30 2 -58 -1 -63 -6 -6 -6 -9 -124 -8 -286 l1 -275 -27 -7 c-15 -4
-38 -3 -52 2 l-26 9 3 245 c1 135 5 255 8 268 6 24 -12 53 -31 50 -6 0 -26 -3
-43 -5z m277 -617 l42 -38 -23 -48 c-21 -43 -28 -49 -59 -52 -33 -3 -36 -1
-62 52 l-27 54 22 26 c30 34 50 51 58 48 4 -2 26 -20 49 -42z"/>
<path d="M3693 6868 c-46 -63 -46 -62 -106 -180 -57 -110 -93 -214 -128 -368
-18 -81 -37 -342 -26 -357 7 -9 33 -11 99 -6 l90 6 -3 -213 c-2 -198 -1 -214
16 -226 28 -21 81 -17 103 7 11 11 22 41 26 66 3 25 6 333 6 684 0 623 0 639
-19 639 -12 0 -35 -21 -58 -52z m-24 -610 c0 -113 -2 -213 -5 -222 -13 -35
-94 -8 -94 32 0 14 -7 30 -16 36 -10 8 -15 26 -15 52 2 97 7 144 19 156 6 6
12 26 12 43 0 17 6 40 14 51 8 11 16 36 18 54 2 25 10 38 28 47 23 12 25 11
31 -15 4 -15 7 -120 8 -234z"/>
<path d="M1780 3521 c-106 -15 -205 -89 -251 -188 l-29 -63 11 -95 c21 -164
85 -240 244 -289 47 -14 57 -14 121 3 116 30 201 99 250 205 93 200 -117 460
-346 427z m179 -136 c23 -14 55 -47 71 -73 26 -41 30 -56 30 -120 0 -83 -14
-118 -68 -167 -75 -68 -175 -82 -267 -39 -77 37 -115 87 -122 163 -9 92 3 141
42 185 58 66 113 87 207 81 49 -3 77 -10 107 -30z"/>
<path d="M1287 3403 c-4 -3 -7 -13 -7 -21 0 -18 -40 -51 -61 -52 -22 0 -59
-20 -86 -45 -30 -28 -83 -161 -83 -208 0 -21 -5 -69 -11 -107 -13 -76 1 -179
27 -201 8 -6 14 -17 14 -25 0 -7 12 -27 28 -44 15 -16 47 -53 72 -80 25 -28
66 -67 93 -87 41 -31 53 -34 90 -30 80 10 112 19 132 37 11 10 30 23 43 29 12
6 22 18 22 26 0 8 7 18 16 23 11 6 15 17 11 33 -10 48 -44 128 -68 165 -30 46
-94 177 -115 237 -26 71 -33 126 -21 164 10 32 9 37 -14 54 -13 10 -29 19 -35
19 -28 0 -45 -96 -32 -180 14 -91 38 -146 137 -315 35 -60 71 -118 79 -127 9
-10 12 -27 8 -42 -5 -20 -14 -25 -58 -31 -29 -4 -68 -13 -87 -21 -52 -22 -64
-17 -101 44 -19 31 -68 89 -107 129 l-73 73 0 55 c0 62 25 239 42 298 16 52
93 127 132 127 15 0 19 9 30 78 5 30 -2 41 -17 25z"/>
<path d="M6556 2995 c-4 -16 -13 -41 -21 -55 -7 -14 -18 -48 -24 -75 -5 -28
-14 -68 -20 -90 -14 -62 -32 -146 -41 -190 -15 -77 -83 -310 -101 -347 -11
-21 -19 -45 -19 -55 0 -10 -18 -56 -40 -103 -22 -47 -40 -90 -40 -96 0 -21
-142 -288 -191 -362 -16 -24 -29 -46 -29 -50 0 -4 -16 -27 -35 -51 -19 -24
-35 -47 -35 -51 0 -5 -15 -26 -32 -49 -18 -22 -50 -64 -71 -94 -20 -29 -55
-73 -77 -98 -22 -24 -75 -83 -118 -131 -42 -47 -81 -87 -87 -87 -5 -1 -30 -22
-55 -48 -42 -44 -107 -103 -215 -195 -22 -19 -60 -48 -85 -64 -25 -17 -74 -50
-110 -75 -76 -51 -285 -179 -293 -179 -4 0 -42 -16 -84 -36 -43 -20 -100 -47
-128 -59 -115 -54 -296 -121 -405 -150 -36 -9 -101 -28 -145 -41 -44 -12 -102
-26 -130 -29 -27 -4 -76 -15 -108 -26 -31 -10 -64 -19 -72 -19 -8 0 -40 -10
-72 -22 -57 -22 -57 -22 -28 -29 82 -18 254 -9 395 22 25 6 63 14 85 18 37 7
77 18 150 43 17 5 44 13 60 18 56 15 172 58 208 76 16 8 33 14 38 14 18 0 237
106 344 165 33 19 69 39 80 45 11 6 34 19 50 30 17 10 40 25 52 32 84 49 298
211 418 318 78 69 225 218 285 289 30 35 62 71 71 80 23 24 169 219 169 227 0
3 13 23 28 43 16 20 32 43 35 51 4 8 16 29 27 45 11 17 24 39 30 50 6 11 19
34 29 50 53 82 174 342 226 485 7 19 20 53 28 75 8 22 22 67 32 100 9 33 22
76 28 95 6 19 14 53 18 75 4 22 12 60 18 85 24 112 31 174 30 286 -1 65 -4
130 -9 144 l-7 25 -7 -30z"/>
<path d="M4631 2683 c-43 -6 -119 -67 -138 -110 -17 -42 -17 -147 1 -182 14
-27 98 -110 113 -112 60 -8 112 -7 137 1 40 13 126 90 126 113 0 9 5 36 12 60
17 65 -9 124 -82 187 -61 53 -69 55 -169 43z m106 -74 c79 -38 103 -100 68
-182 -16 -39 -65 -84 -100 -93 -30 -7 -102 25 -135 60 -21 23 -25 38 -25 85 0
64 23 103 78 133 42 23 62 22 114 -3z"/>
<path d="M4940 2650 c0 -5 10 -28 21 -50 19 -36 21 -52 16 -121 -6 -78 -6 -79
18 -85 50 -12 101 -46 177 -115 43 -39 78 -79 78 -89 0 -10 7 -23 15 -30 8 -7
15 -19 15 -26 0 -8 5 -14 10 -14 15 0 12 53 -6 88 -8 18 -29 45 -45 62 l-30
30 12 73 c16 97 -3 163 -59 199 -60 38 -77 46 -118 54 -22 4 -48 13 -59 20
-23 16 -45 18 -45 4z m143 -77 c29 -9 59 -26 69 -37 21 -27 33 -103 19 -120
-12 -14 -57 -10 -67 5 -3 5 -16 9 -28 9 -31 0 -50 24 -42 53 3 12 -1 35 -9 51
-18 33 -19 56 -4 56 5 0 34 -8 62 -17z"/>
<path d="M4888 2347 c-23 -53 -22 -57 2 -57 15 0 27 12 40 42 20 45 18 58 -8
58 -11 0 -24 -16 -34 -43z"/>
<path d="M4890 2189 c0 -11 5 -17 10 -14 6 3 10 13 10 21 0 8 -4 14 -10 14 -5
0 -10 -9 -10 -21z"/>
</g>
</svg>
