<?xml version="1.0" standalone="no"?>
<!DOCTYPE svg PUBLIC "-//W3C//DTD SVG 20010904//EN"
 "http://www.w3.org/TR/2001/REC-SVG-20010904/DTD/svg10.dtd">
<svg version="1.0" xmlns="http://www.w3.org/2000/svg"
 width="221.000000pt" height="246.000000pt" viewBox="0 0 221.000000 246.000000"
 preserveAspectRatio="xMidYMid meet">
<metadata>
Created by potrace 1.13, written by Peter Selinger 2001-2015
</metadata>
<g transform="translate(0.000000,246.000000) scale(0.100000,-0.100000)"
fill="#000000" stroke="none">
<path d="M919 2298 c-1 -7 -1 -56 0 -108 2 -87 4 -97 27 -115 22 -19 24 -27
24 -121 0 -117 10 -141 53 -125 l27 11 0 115 c0 95 3 115 15 115 31 0 44 41
42 140 -2 81 -4 95 -19 98 -16 3 -18 -6 -18 -92 0 -89 -1 -96 -20 -96 -18 0
-20 8 -22 92 -3 78 -6 93 -20 96 -15 3 -18 -8 -20 -90 -3 -79 -6 -93 -20 -96
-16 -3 -18 6 -18 92 0 79 -3 96 -15 96 -8 0 -16 -6 -16 -12z"/>
<path d="M1239 2294 c-46 -53 -89 -175 -89 -256 0 -46 1 -48 30 -48 l29 0 3
-72 c2 -59 6 -73 20 -76 26 -5 29 22 26 257 -3 198 -4 212 -19 195z"/>
<path d="M1470 2117 c0 -2 75 -77 167 -168 385 -378 400 -395 428 -496 14 -51
15 -70 6 -114 -11 -51 -45 -119 -60 -119 -4 0 -27 20 -51 45 -42 43 -43 46
-27 62 16 16 13 22 -60 95 -73 73 -78 77 -95 61 -18 -16 -17 -18 9 -45 14 -15
23 -31 20 -35 -4 -4 -34 -10 -67 -14 -33 -4 -68 -13 -77 -20 -14 -12 -13 -14
8 -19 19 -5 25 -13 27 -43 2 -21 -1 -37 -7 -37 -6 0 -11 5 -11 11 0 6 -11 -3
-25 -19 -14 -16 -36 -33 -50 -36 -21 -5 -25 -12 -25 -41 0 -41 -11 -45 -34
-10 -9 14 -24 25 -34 25 -10 0 -13 -3 -6 -8 5 -4 11 -30 12 -59 2 -47 -1 -53
-33 -82 -20 -17 -40 -31 -45 -31 -6 0 -10 -7 -10 -15 0 -8 -4 -15 -10 -15 -5
0 -10 7 -10 16 0 8 -4 13 -9 9 -6 -3 -3 -18 7 -35 15 -27 16 -32 2 -57 -17
-30 -40 -42 -40 -20 0 8 -6 20 -14 26 -25 21 -24 -10 1 -48 14 -20 21 -42 17
-53 -3 -10 -1 -18 5 -18 6 0 11 -13 11 -30 0 -28 -2 -29 -24 -19 -14 7 -27 23
-31 38 -4 14 -14 34 -22 44 -20 22 -9 35 13 16 15 -12 16 -11 9 11 -8 25 -13
50 -14 82 -1 11 -6 15 -16 12 -10 -4 -15 0 -15 11 0 9 -5 25 -10 36 -10 17
-14 18 -43 6 -25 -10 -36 -25 -52 -67 -11 -29 -25 -55 -31 -57 -6 -2 -19 22
-29 54 -24 74 -59 113 -100 113 -17 0 -48 9 -68 19 -21 11 -36 14 -34 8 4 -13
24 -24 60 -32 15 -3 27 -11 27 -19 0 -27 -42 -65 -90 -81 -58 -19 -65 -30 -15
-22 19 3 35 2 35 -3 0 -24 -25 -68 -61 -107 -38 -42 -40 -46 -33 -90 5 -37 2
-55 -14 -87 -12 -23 -30 -63 -41 -89 -16 -37 -28 -51 -57 -63 -56 -23 -66 -17
-93 61 -22 66 -38 225 -22 225 3 0 4 39 0 87 -3 49 -5 88 -5 88 1 0 18 9 39
19 74 38 89 116 33 172 -28 28 -41 34 -77 34 -36 0 -47 -6 -80 -40 -25 -26
-47 -40 -64 -40 -22 0 -25 -4 -25 -37 0 -24 14 -65 37 -110 20 -40 35 -75 31
-78 -3 -3 -19 -10 -36 -15 -29 -8 -33 -6 -52 25 -11 18 -27 36 -35 39 -10 4
-15 20 -15 54 0 63 16 110 42 118 11 3 24 18 29 32 5 15 32 44 61 65 28 20 46
37 42 37 -5 0 -26 -14 -47 -31 -40 -33 -67 -33 -67 0 0 37 12 51 41 51 29 0
38 13 18 25 -6 4 -8 13 -5 21 3 8 1 14 -4 14 -6 0 -10 8 -10 18 0 10 -5 23
-11 29 -16 16 -2 33 27 33 16 0 24 -6 24 -17 0 -10 7 -26 14 -35 12 -17 15
-16 41 8 20 18 31 22 38 15 18 -18 56 -12 95 14 30 21 33 25 15 25 -11 0 -24
8 -29 18 -6 14 -8 12 -13 -12 -8 -39 -34 -55 -61 -38 -12 7 -25 10 -30 7 -16
-10 -33 34 -20 51 23 27 130 94 151 94 27 0 132 -30 139 -40 3 -4 43 -1 90 6
47 7 88 13 93 13 11 1 -57 132 -98 187 -21 27 -58 70 -83 96 -38 40 -48 45
-65 36 -13 -7 -17 -7 -13 0 4 6 -7 32 -24 59 -35 55 -54 115 -45 143 4 12 2
20 -4 20 -6 0 -11 11 -11 25 0 31 -8 31 -73 -1 -266 -135 -469 -380 -550 -662
-13 -45 -25 -80 -28 -78 -6 6 -14 -122 -14 -224 0 -105 8 -239 14 -234 3 2 15
-32 28 -76 119 -412 498 -731 911 -767 39 -3 72 -10 72 -14 0 -5 27 -9 60 -9
33 0 60 4 60 9 0 4 31 11 68 14 158 13 367 92 508 193 83 59 191 167 250 250
109 153 194 389 194 540 0 24 5 44 10 44 6 0 10 20 10 45 0 25 -4 45 -9 45 -4
0 -11 35 -14 78 -31 386 -310 745 -694 893 -13 5 -23 7 -23 6z m-797 -999 c40
-48 5 -128 -58 -128 -41 0 -72 23 -80 60 -17 78 86 129 138 68z m1004 -431
l10 28 29 -44 c16 -24 33 -50 39 -57 7 -10 -4 -27 -40 -65 -67 -68 -82 -75
-106 -53 -18 16 -22 16 -52 2 -18 -8 -46 -18 -63 -22 -31 -7 -32 -6 -38 36
-13 87 -12 91 14 105 14 7 33 22 43 34 14 17 20 19 31 10 12 -10 20 -6 42 18
l28 31 27 -26 27 -26 9 29z"/>
<path d="M1329 1786 c-82 -91 -231 -314 -185 -277 34 29 122 53 210 58 76 5
90 4 98 -11 6 -11 23 -16 60 -16 30 0 58 -6 67 -14 22 -19 81 -9 81 14 0 9
-24 40 -52 68 -49 49 -51 53 -35 69 16 16 18 15 47 -12 19 -18 29 -37 26 -47
-2 -10 0 -16 5 -12 17 10 9 30 -26 64 -33 32 -35 33 -54 16 -25 -23 -35 -17
-111 69 -34 39 -67 73 -73 76 -7 3 -33 -17 -58 -45z"/>
</g>
</svg>
