<?xml version="1.0" standalone="no"?>
<!DOCTYPE svg PUBLIC "-//W3C//DTD SVG 20010904//EN"
 "http://www.w3.org/TR/2001/REC-SVG-20010904/DTD/svg10.dtd">
<svg version="1.0" xmlns="http://www.w3.org/2000/svg"
 width="589.000000pt" height="656.000000pt" viewBox="0 0 589.000000 656.000000"
 preserveAspectRatio="xMidYMid meet">
<metadata>
Created by potrace 1.13, written by Peter Selinger 2001-2015
</metadata>
<g transform="translate(0.000000,656.000000) scale(0.100000,-0.100000)"
fill="#000000" stroke="none">
<path d="M3223 6023 c-78 -78 -142 -238 -177 -442 -9 -52 -16 -116 -16 -142
l0 -47 65 -22 65 -22 0 -105 c0 -129 13 -183 46 -183 30 0 51 23 64 68 6 24 7
194 2 487 l-7 450 -42 -42z"/>
<path d="M2533 5829 c6 -247 8 -256 78 -291 l34 -18 6 -232 c3 -128 9 -241 13
-250 11 -24 57 -31 105 -17 l41 12 0 142 c0 78 3 190 7 248 l6 107 37 10 c65
18 69 33 77 274 l6 215 -28 11 c-47 18 -50 6 -47 -189 4 -198 1 -209 -58 -196
l-30 7 0 81 c0 45 -3 133 -7 195 l-6 112 -37 0 c-48 0 -50 -8 -49 -187 1 -106
-2 -147 -14 -175 -9 -21 -18 -38 -21 -38 -3 0 -13 15 -23 33 -15 27 -17 56
-16 193 l2 162 -31 6 c-17 3 -35 6 -41 6 -7 0 -8 -73 -4 -221z"/>
<path d="M3544 4752 c-140 -135 -193 -200 -311 -377 -92 -137 -166 -294 -140
-296 41 -3 97 8 241 47 209 57 313 72 401 55 75 -13 135 -39 135 -57 0 -18 47
-26 164 -28 88 -2 111 -7 178 -34 107 -45 177 -41 212 12 12 20 10 28 -29 94
-34 60 -53 81 -104 114 -62 40 -108 92 -139 155 -9 18 -28 37 -46 44 -34 14
-242 220 -338 337 -34 39 -66 72 -72 72 -6 0 -75 -62 -152 -138z"/>
<path d="M2080 4804 c-25 -31 -207 -214 -405 -407 -639 -623 -1075 -1060
-1141 -1144 -172 -218 -231 -444 -174 -667 32 -125 69 -191 178 -312 55 -61
502 -512 993 -1003 618 -616 916 -907 966 -942 153 -106 289 -152 443 -152
156 0 292 49 446 159 69 49 352 317 709 669 118 116 257 283 249 297 -3 4 -14
8 -25 8 -10 0 -19 4 -19 10 0 5 -17 17 -37 25 -43 18 -95 10 -164 -26 -21 -10
-62 -24 -91 -30 -29 -6 -66 -15 -81 -21 -35 -14 -39 -9 -27 32 8 28 3 54 -30
159 -29 92 -37 128 -29 138 6 7 41 27 78 44 41 19 83 49 112 80 l46 48 34 -25
33 -24 76 74 75 75 36 -19 c19 -10 46 -34 59 -53 28 -40 53 -39 70 4 7 16 15
29 19 29 3 0 49 -43 102 -96 l97 -97 39 23 c89 54 138 98 212 189 43 53 132
144 197 203 129 115 175 166 248 272 120 175 161 316 137 462 -7 38 -47 160
-89 271 l-77 202 -109 116 c-62 66 -126 125 -150 137 -22 11 -59 38 -82 58
-70 64 -76 65 -103 16 -24 -47 -98 -98 -105 -74 -3 7 -7 50 -11 95 l-6 82 30
8 c30 8 30 8 12 32 l-18 24 -39 -24 c-35 -21 -49 -24 -129 -21 -78 2 -96 -1
-140 -23 -28 -13 -63 -37 -78 -53 l-28 -29 65 -18 66 -18 0 -85 0 -85 -23 21
c-33 31 -49 27 -79 -21 -41 -65 -80 -97 -149 -122 l-64 -23 -6 -68 c-5 -71
-15 -104 -29 -104 -5 0 -25 27 -45 60 -40 65 -68 81 -112 61 -24 -11 -24 -13
-10 -29 24 -27 40 -117 35 -198 -6 -96 -39 -153 -111 -194 -28 -16 -65 -32
-82 -36 -36 -8 -45 -19 -45 -61 0 -29 -3 -33 -26 -33 -14 0 -22 4 -19 10 3 5
-3 26 -14 47 l-20 38 -1 -32 c0 -18 11 -62 25 -99 14 -36 25 -80 25 -97 0 -29
-54 -127 -70 -127 -5 0 -21 15 -36 33 -34 41 -61 60 -87 61 -26 1 -67 59 -67
93 l0 25 -35 -20 c-38 -23 -38 -24 -50 54 -19 126 -103 147 -200 49 -32 -31
-48 -61 -74 -135 -37 -106 -67 -163 -85 -157 -19 6 -62 103 -85 190 -12 45
-35 105 -51 134 -35 61 -65 77 -237 127 -67 20 -147 45 -178 57 -31 11 -58 19
-60 17 -3 -2 5 -23 16 -46 17 -33 27 -42 52 -46 99 -14 131 -23 140 -37 22
-36 -18 -130 -74 -171 -37 -28 -280 -108 -284 -94 -2 6 -11 43 -20 81 -21 88
-73 197 -120 253 -21 24 -39 41 -41 40 -2 -2 5 -44 15 -94 22 -107 55 -176
109 -226 35 -33 48 -55 65 -110 5 -15 11 -15 79 3 98 25 102 25 94 -9 -30
-124 -36 -134 -122 -218 -86 -83 -123 -144 -124 -198 0 -16 5 -57 11 -91 16
-86 5 -142 -41 -212 -22 -32 -60 -114 -85 -183 -55 -147 -75 -183 -124 -215
-40 -27 -137 -55 -189 -55 -30 0 -35 4 -56 53 -13 28 -35 99 -50 157 -15 58
-37 136 -48 174 -18 58 -20 84 -14 170 5 77 3 114 -9 151 -13 44 -13 51 0 61
18 14 21 189 5 329 -9 76 -8 97 5 132 15 38 25 47 97 85 90 47 129 90 153 171
33 112 11 193 -77 280 -63 63 -114 89 -186 95 -77 7 -162 -37 -240 -124 -55
-61 -64 -67 -128 -83 l-69 -17 -8 -45 c-4 -24 -5 -80 -2 -124 6 -88 25 -136
97 -257 42 -68 83 -157 76 -163 -4 -4 -177 -45 -189 -45 -5 0 -17 17 -28 38
-11 21 -47 68 -80 105 -33 37 -63 78 -67 92 -3 14 -4 78 -2 142 3 96 8 126 25
158 26 49 58 80 104 99 32 13 37 21 64 105 16 50 27 92 24 93 -2 2 -17 10 -34
19 -28 14 -30 18 -28 72 1 31 7 65 13 76 11 21 15 23 105 38 57 9 66 25 41 75
-13 25 -14 33 -4 39 7 4 22 15 33 23 19 15 19 15 -8 16 -63 0 -87 38 -90 140
-2 47 2 65 14 73 37 24 107 -43 131 -127 6 -23 12 -42 13 -43 1 -2 23 4 48 13
31 10 60 31 85 59 l39 44 44 -16 c101 -35 169 -19 286 70 l56 42 -35 6 c-20 3
-57 20 -84 38 l-49 32 -12 -63 c-25 -123 -15 -112 -93 -105 -44 4 -93 16 -130
33 -57 25 -60 29 -60 61 0 58 28 102 89 141 31 19 96 61 144 93 101 67 151 84
221 74 94 -12 309 -89 327 -117 4 -6 71 0 170 16 90 13 199 28 242 32 42 3 77
10 77 14 0 16 -73 178 -117 260 -74 137 -151 246 -268 379 -100 114 -224 231
-243 231 -4 0 -27 -25 -52 -56z m2478 -1469 c6 -6 -18 -43 -47 -72 -20 -21
-31 -44 -36 -76 -9 -59 -34 -91 -93 -121 -59 -29 -151 -60 -159 -52 -8 8 16
62 36 80 10 9 39 20 65 25 73 13 90 37 126 169 12 47 38 65 80 56 14 -3 26 -7
28 -9z m-2845 -299 c50 -20 94 -77 107 -139 24 -103 -25 -210 -107 -238 -51
-16 -139 -7 -204 23 l-55 25 -12 96 c-18 145 -19 140 41 181 87 60 168 78 230
52z m1875 -655 c33 -32 42 -50 52 -98 6 -32 20 -83 32 -113 26 -70 36 -152 16
-146 -7 3 -32 10 -54 16 -39 9 -43 14 -63 69 -11 32 -32 73 -46 92 -30 41 -58
99 -51 106 3 3 26 -7 52 -21 26 -14 49 -25 50 -23 2 2 -7 37 -21 77 -14 40
-25 75 -25 77 0 12 23 -3 58 -36z m632 -63 c39 -20 46 -29 54 -66 7 -33 5 -56
-8 -97 -9 -30 -20 -56 -24 -58 -15 -9 -174 20 -183 34 -6 8 -8 47 -7 88 3 66
6 76 31 97 36 30 79 31 137 2z m291 -219 c74 -35 94 -49 118 -86 29 -44 48
-99 38 -110 -10 -9 -76 18 -86 35 -7 13 -17 14 -57 6 l-49 -9 -52 53 -53 54
21 49 c12 27 24 49 26 49 3 0 45 -19 94 -41z m-2041 -291 c-1 -103 -51 -257
-91 -279 -17 -9 -22 -4 -44 43 -14 29 -25 66 -25 81 0 33 24 94 48 121 21 24
92 76 104 76 4 0 8 -19 8 -42z"/>
<path d="M2465 3393 c-11 -2 -30 -6 -42 -9 -33 -6 -32 -62 2 -98 26 -28 33
-78 15 -106 -11 -18 9 -28 56 -29 25 -1 33 4 38 22 11 43 6 67 -24 100 l-29
34 24 23 c14 13 25 34 25 47 0 23 -14 27 -65 16z"/>
<path d="M2007 3353 c-8 -15 -17 -45 -20 -66 l-6 -38 32 6 c18 3 83 2 145 -3
61 -4 112 -5 112 -2 0 3 -18 30 -39 60 l-38 55 -59 1 c-32 0 -71 4 -86 8 -23
7 -29 4 -41 -21z"/>
</g>
</svg>
