<?xml version="1.0" standalone="no"?>
<!DOCTYPE svg PUBLIC "-//W3C//DTD SVG 20010904//EN"
 "http://www.w3.org/TR/2001/REC-SVG-20010904/DTD/svg10.dtd">
<svg version="1.0" xmlns="http://www.w3.org/2000/svg"
 width="221.000000pt" height="246.000000pt" viewBox="0 0 221.000000 246.000000"
 preserveAspectRatio="xMidYMid meet">
<metadata>
Created by potrace 1.10, written by Peter Selinger 2001-2011
</metadata>
<g transform="translate(0.000000,246.000000) scale(0.100000,-0.100000)"
fill="#cac6c6" stroke="none">
<path d="M964 2436 c-114 -36 -227 -163 -250 -281 -5 -27 -18 -37 -101 -79
-282 -144 -479 -383 -569 -691 -32 -111 -44 -338 -24 -463 68 -426 392 -782
807 -888 52 -13 121 -24 152 -23 65 0 47 13 -34 23 -85 11 -216 54 -315 104
-52 25 -96 50 -98 54 -2 5 -8 8 -14 8 -28 0 -222 183 -286 270 -87 119 -165
311 -192 474 -14 86 -15 242 -1 277 5 15 8 29 5 32 -7 6 26 150 37 162 5 5 9
16 9 26 0 28 105 232 153 294 25 33 78 92 119 131 94 92 262 204 304 204 7 0
15 6 17 13 3 6 6 -4 6 -25 1 -49 33 -149 60 -187 13 -17 21 -36 19 -41 -2 -6
-138 -146 -303 -313 -165 -166 -309 -318 -320 -337 -28 -50 -38 -88 -38 -145
0 -67 10 -102 44 -152 46 -67 772 -787 815 -809 55 -26 212 -26 269 1 38 17
160 134 596 568 241 240 254 261 253 387 0 56 -6 86 -22 119 -26 53 -27 69 -7
98 8 11 21 46 29 76 18 68 2 167 -36 224 -14 22 -135 148 -268 281 -133 134
-241 245 -238 247 6 6 83 -35 165 -87 61 -40 216 -182 248 -228 6 -8 24 -33
41 -55 36 -46 85 -140 79 -149 -3 -3 -2 -4 2 -1 17 13 77 -176 105 -330 l13
-70 3 60 c6 124 -70 340 -175 497 -62 93 -198 229 -291 291 -62 41 -196 110
-254 130 -10 4 -18 16 -18 29 0 41 -48 127 -100 179 -63 62 -162 112 -217 107
l-38 -4 57 -17 c148 -47 233 -125 269 -249 7 -23 19 -48 27 -54 12 -9 12 -17
-2 -57 -9 -26 -16 -55 -16 -64 0 -24 -23 -83 -32 -83 -4 0 -8 -8 -8 -19 0 -10
-7 -24 -15 -31 -9 -7 -13 -20 -10 -27 3 -9 -18 -37 -51 -71 -31 -31 -78 -91
-104 -132 -26 -41 -59 -87 -72 -101 -13 -14 -30 -48 -39 -75 l-15 -49 -22 55
c-11 30 -21 48 -22 40 0 -11 -7 -8 -22 10 -14 16 -19 19 -15 8 4 -11 2 -18 -6
-18 -7 0 -41 -5 -76 -10 -35 -5 -71 -5 -80 0 -9 4 -45 15 -79 24 -74 19 -81
17 -176 -53 -59 -44 -63 -52 -41 -103 5 -13 2 -18 -9 -18 -9 0 -21 11 -25 24
-12 29 -36 39 -62 25 -16 -8 -19 -16 -13 -42 3 -18 11 -38 17 -45 5 -7 7 -15
4 -19 -4 -3 -1 -13 6 -21 9 -13 9 -14 0 -8 -15 8 -63 -36 -63 -58 0 -8 7 -22
16 -30 20 -21 11 -47 -26 -74 -18 -14 -31 -34 -35 -54 -16 -102 -16 -105 44
-169 37 -40 39 -41 74 -30 19 7 38 18 41 26 3 8 -14 51 -37 95 -35 68 -40 84
-29 100 8 14 8 21 1 26 -6 4 -15 0 -20 -7 -16 -24 5 -93 52 -171 26 -42 25
-43 -16 -52 -27 -6 -34 -2 -68 39 -38 44 -38 47 -31 103 5 43 13 63 34 82 15
14 30 36 34 48 5 15 13 21 22 18 8 -3 14 -1 14 4 0 5 18 22 41 37 31 20 51 26
91 25 130 -3 187 -125 119 -255 -52 -98 -111 -179 -124 -168 -18 15 -9 -140
13 -224 10 -38 16 -73 13 -79 -3 -5 -1 -6 4 -3 6 4 13 0 17 -8 7 -19 58 -20
94 -1 27 14 43 40 81 129 11 26 21 47 23 47 2 0 3 -18 3 -40 1 -49 26 -80 49
-61 9 7 23 38 33 67 16 51 16 56 0 71 -15 15 -18 15 -34 1 -34 -29 -38 -27
-41 29 -2 51 0 58 33 95 37 40 55 76 55 106 0 9 -11 -5 -24 -32 -14 -26 -39
-63 -56 -81 -30 -31 -32 -37 -26 -80 6 -36 3 -52 -12 -78 -11 -17 -27 -53 -37
-79 -21 -58 -50 -85 -94 -90 -30 -3 -35 0 -43 27 -5 17 -17 57 -27 90 -19 63
-22 162 -4 173 16 11 113 160 134 205 20 46 25 111 9 151 -6 18 -6 26 1 26 15
0 140 -67 161 -87 10 -9 28 -17 39 -18 11 -1 24 -6 30 -12 14 -14 -32 -67 -73
-83 -56 -21 -82 -34 -109 -55 -15 -11 -59 -40 -98 -64 -39 -24 -69 -46 -67
-49 6 -6 138 72 178 104 15 12 42 26 60 29 47 11 104 52 118 86 9 20 19 29 35
29 27 0 41 -15 51 -55 4 -17 15 -47 26 -68 25 -51 47 -45 71 18 18 50 39 75
64 75 7 0 13 -11 13 -24 0 -25 22 -51 33 -39 11 11 8 -47 -3 -68 -8 -14 -7
-27 4 -47 8 -15 17 -35 20 -44 3 -9 17 -25 31 -34 24 -16 28 -16 42 -1 15 15
15 20 -1 69 -10 32 -13 54 -7 56 18 6 51 69 45 86 -4 11 12 33 51 71 55 52 57
56 50 92 -6 35 -6 36 12 22 10 -8 23 -20 29 -28 15 -19 110 30 119 61 4 13 14
31 23 41 11 13 13 20 4 29 -6 6 -8 24 -5 39 3 18 -1 38 -11 54 l-16 25 45 0
c47 0 54 -6 33 -29 -10 -11 -10 -13 0 -7 6 4 12 2 12 -4 0 -6 6 -18 14 -25 11
-12 18 -9 44 16 l30 30 26 -28 c14 -15 26 -33 26 -39 0 -7 7 -15 16 -18 8 -3
12 -11 8 -17 -4 -7 -3 -9 2 -6 17 10 83 -60 105 -110 12 -27 21 -72 22 -103 2
-91 -35 -154 -174 -292 -65 -65 -122 -118 -128 -118 -9 0 -29 27 -65 88 -10
17 -1 15 19 -4 12 -13 19 -14 30 -4 19 16 19 34 -1 51 -10 8 -14 22 -10 39 9
45 -3 68 -45 84 -22 9 -41 16 -43 16 -2 0 -1 -20 2 -45 3 -29 1 -45 -6 -45 -6
0 -16 -9 -22 -20 -14 -26 -6 -25 19 1 19 20 20 21 49 4 37 -22 71 -75 48 -75
-8 0 -19 8 -25 18 -8 14 -12 15 -22 5 -18 -18 -27 -16 -34 7 -3 11 -11 20 -17
20 -6 0 -4 -10 5 -23 22 -34 7 -53 -22 -28 l-23 20 -24 -28 c-17 -20 -30 -27
-44 -24 -14 4 -27 -3 -41 -21 -11 -14 -26 -26 -33 -26 -7 0 -20 -8 -30 -19
-16 -18 -15 -30 4 -76 5 -11 10 -31 12 -45 3 -22 7 -25 43 -23 22 2 50 8 61
14 26 13 56 9 62 -9 2 -7 -74 -89 -169 -183 -201 -196 -242 -223 -348 -223
-120 -1 -129 6 -557 436 -244 246 -387 397 -398 421 -11 24 -18 65 -19 106 -2
117 15 139 368 491 l309 309 -21 23 c-41 45 -66 110 -71 185 -4 61 -2 74 12
79 9 3 16 17 16 31 0 42 60 152 104 190 51 44 126 79 189 88 26 4 50 11 53 16
8 13 -75 10 -122 -5z m947 -771 l21 -25 -51 -46 c-28 -25 -51 -50 -51 -55 0
-13 76 -94 122 -130 l37 -30 32 35 c17 20 35 36 40 36 13 0 11 -101 -3 -141
-6 -19 -20 -47 -31 -62 l-20 -29 -43 43 c-41 41 -42 43 -27 66 16 24 15 26
-62 103 l-79 80 -23 -22 -23 -22 31 -32 c35 -37 27 -44 -47 -44 -43 0 -94 -22
-94 -41 0 -5 14 -9 30 -9 28 0 30 -2 30 -37 -1 -34 -2 -36 -14 -21 -12 16 -14
16 -24 -7 -6 -13 -28 -33 -49 -43 -31 -15 -38 -22 -35 -44 4 -36 -16 -45 -28
-13 -11 30 -36 43 -52 27 -8 -8 -7 -13 3 -17 19 -7 19 -96 -1 -120 -8 -10 -29
-24 -47 -32 -22 -9 -31 -18 -27 -28 4 -8 1 -15 -5 -15 -6 0 -11 10 -11 22 0
17 -3 19 -12 10 -9 -9 -7 -19 7 -46 18 -33 18 -34 -3 -61 l-21 -27 -12 26 c-7
14 -16 26 -20 26 -17 0 -15 -27 3 -53 12 -16 18 -38 16 -52 -3 -14 0 -26 8
-29 8 -3 14 -17 14 -31 0 -25 -1 -25 -25 -9 -14 9 -25 23 -25 31 0 8 -9 26
-20 40 -25 32 -18 43 10 18 24 -22 25 -14 5 26 -9 16 -13 34 -10 39 3 5 3 21
-1 35 -5 20 -9 23 -20 14 -11 -9 -14 -7 -14 14 0 13 -7 31 -16 38 -13 11 -20
11 -42 -2 -27 -15 -40 -36 -63 -97 -14 -40 -21 -34 -44 38 -22 70 -49 100 -90
100 -28 0 -156 58 -209 96 -11 7 -30 14 -43 14 -12 0 -36 13 -53 29 -68 62
-165 64 -230 5 -41 -38 -70 -37 -70 1 0 29 24 48 50 40 16 -5 20 -2 20 14 0
12 -6 21 -12 21 -7 0 -4 6 7 13 69 41 85 54 85 66 0 12 3 12 12 3 19 -19 77
-14 105 8 14 11 32 20 39 20 8 0 14 5 14 11 0 7 -11 9 -30 6 -22 -5 -30 -3
-30 8 0 8 -7 15 -15 15 -10 0 -15 -10 -15 -29 0 -31 -26 -49 -44 -31 -5 5 -20
10 -33 10 -18 0 -23 6 -23 24 0 19 15 35 68 70 75 51 84 53 135 31 20 -8 48
-15 62 -15 16 0 25 -6 25 -15 0 -17 11 -19 26 -6 14 14 161 24 168 12 4 -6 15
-43 25 -83 11 -40 21 -66 24 -58 2 8 9 36 16 63 17 71 43 120 66 123 11 1 40
10 65 19 26 10 79 17 123 18 67 2 80 -1 89 -16 8 -16 18 -18 64 -12 44 5 55 3
60 -9 6 -17 33 -20 72 -10 26 7 28 21 5 46 -15 17 -15 19 0 36 24 26 22 33
-23 77 l-40 39 -23 -22 -24 -22 -76 84 -77 84 34 65 c19 36 37 87 41 114 4 26
8 54 11 61 4 13 386 -349 435 -413z m-482 103 c42 -46 42 -47 -90 -129 -54
-33 -99 -63 -99 -66 0 -6 76 38 166 97 l71 46 31 -25 c86 -71 103 -83 108 -79
7 8 -7 38 -16 33 -4 -3 -10 2 -14 10 -8 22 8 18 32 -8 16 -17 19 -26 11 -34
-8 -8 -6 -19 5 -41 9 -17 16 -33 16 -37 0 -9 -59 -5 -65 5 -3 6 -29 10 -57 10
-32 0 -58 6 -68 15 -20 18 -136 22 -186 7 -19 -6 -37 -6 -47 0 -11 6 -17 5
-17 -2 0 -5 -4 -10 -10 -10 -18 0 -11 16 37 86 54 80 144 178 152 167 3 -5 21
-25 40 -45z m557 -175 c18 -20 43 -56 54 -81 l21 -44 -38 -33 -38 -33 -37 29
c-20 16 -51 46 -68 66 l-33 37 42 38 c22 21 41 43 41 48 0 20 23 9 56 -27z
m-126 -188 c35 -36 61 -65 56 -65 -10 0 -126 111 -126 122 0 13 2 11 70 -57z
m-1358 -37 c-1 -9 2 -19 8 -23 20 -12 10 -35 -16 -35 -20 0 -24 4 -19 19 3 10
-1 24 -10 31 -13 11 -13 15 -3 22 20 12 43 4 40 -14z m1338 7 c11 -13 9 -20
-11 -41 l-24 -25 -7 27 c-4 17 -3 33 4 41 14 17 23 16 38 -2z m-131 -129 c9
-11 7 -15 -9 -19 -13 -3 -20 -13 -20 -31 0 -21 -10 -30 -51 -51 -45 -23 -50
-24 -47 -8 2 10 18 23 37 29 26 8 37 20 47 50 8 21 14 40 14 42 0 7 19 0 29
-12z m-63 -32 c-3 -9 -6 -18 -6 -20 0 -2 -11 -4 -25 -4 -31 0 -32 12 -2 26 32
17 40 16 33 -2z m62 -360 c20 -14 32 -64 15 -64 -17 1 -40 27 -47 53 -7 31 0
34 32 11z m2 -183 c11 -22 27 -44 37 -49 15 -9 14 -13 -12 -43 -15 -19 -46
-49 -67 -68 -36 -30 -41 -33 -50 -18 -11 21 -40 22 -76 3 -15 -7 -40 -16 -55
-20 -25 -6 -28 -4 -22 13 3 10 -2 38 -11 61 -16 40 -16 43 0 52 9 5 32 23 51
39 29 26 34 27 40 12 6 -16 10 -14 36 15 l30 34 35 -27 34 -26 0 30 c0 17 2
31 5 31 2 0 14 -18 25 -39z m-790 -47 c-14 -49 -28 -64 -41 -43 -18 28 -10 69
19 94 33 29 40 14 22 -51z"/>
<path d="M1539 1783 c-13 -16 -12 -17 4 -4 9 7 17 15 17 17 0 8 -8 3 -21 -13z"/>
<path d="M1740 1685 c-35 -36 -59 -65 -52 -65 14 0 132 109 132 121 0 19 -18
6 -80 -56z"/>
<path d="M1786 1650 c-36 -35 -63 -67 -59 -73 3 -5 -2 -16 -12 -23 -15 -12
-20 -11 -31 4 -7 9 -14 12 -14 6 0 -17 40 -64 55 -64 7 0 18 7 26 16 10 13 10
19 0 36 -12 19 -7 26 50 84 35 35 60 66 56 70 -3 4 -35 -22 -71 -56z"/>
<path d="M913 1273 c-18 -7 -16 -42 2 -49 12 -5 13 -9 4 -20 -14 -17 -11 -21
16 -26 26 -4 32 28 10 53 -16 17 -16 19 -1 25 9 3 16 10 16 15 0 10 -27 11
-47 2z"/>
<path d="M752 1250 c-20 -32 -15 -35 48 -35 33 0 60 2 60 5 -1 3 -10 16 -20
29 -16 18 -23 21 -34 12 -10 -8 -16 -9 -21 -1 -9 15 -19 12 -33 -10z"/>
<path d="M1600 1566 c0 -2 7 -9 15 -16 9 -7 15 -8 15 -2 0 5 -7 12 -15 16 -8
3 -15 4 -15 2z"/>
<path d="M1015 2391 c-66 -17 -136 -70 -183 -138 -65 -93 -68 -255 -6 -354 38
-61 122 -125 189 -144 122 -36 253 19 334 139 80 119 66 293 -31 397 -66 70
-124 99 -205 104 -37 2 -81 1 -98 -4z m193 -41 c60 -26 115 -82 146 -149 32
-71 30 -199 -6 -266 -57 -107 -147 -164 -261 -165 -204 0 -342 214 -266 415
29 77 104 154 174 178 63 22 144 17 213 -13z"/>
<path d="M915 2301 c-3 -5 -2 -55 1 -111 6 -92 9 -103 31 -117 22 -14 23 -21
23 -122 0 -58 4 -112 9 -120 6 -9 18 -11 40 -6 l31 7 0 113 c0 108 1 115 23
126 34 18 37 27 37 137 0 102 0 102 -25 102 l-24 0 6 -95 c6 -92 5 -95 -15
-95 -21 0 -22 4 -22 96 0 91 -1 95 -21 92 -20 -3 -21 -10 -23 -95 -1 -83 -3
-93 -19 -93 -17 0 -19 8 -15 95 3 84 1 95 -14 95 -9 0 -19 -4 -23 -9z m121
-198 c9 -3 25 -1 35 6 11 6 19 7 19 2 0 -6 -12 -16 -27 -23 -28 -13 -28 -14
-31 -126 -2 -104 -4 -112 -22 -112 -19 0 -20 7 -20 110 0 108 -1 111 -25 122
-33 15 -32 24 3 23 21 0 28 5 31 25 l3 25 9 -23 c5 -12 16 -25 25 -29z"/>
<path d="M1213 2258 c-39 -67 -52 -108 -62 -197 l-7 -71 32 0 33 0 3 -72 c3
-65 5 -73 23 -73 19 0 20 8 23 233 1 127 -1 232 -6 232 -4 0 -22 -24 -39 -52z
m22 -200 c0 -112 -1 -172 -3 -134 -3 65 -4 69 -32 79 -27 10 -30 16 -30 52 0
47 24 137 48 178 9 15 16 27 17 27 0 0 0 -91 0 -202z"/>
<path d="M868 1748 c34 -37 73 -88 87 -113 34 -57 44 -60 13 -3 -13 22 -54 73
-92 112 l-68 71 60 -67z"/>
<path d="M930 1710 c0 -5 5 -10 11 -10 5 0 7 5 4 10 -3 6 -8 10 -11 10 -2 0
-4 -4 -4 -10z"/>
<path d="M709 1693 c-13 -16 -12 -17 4 -4 9 7 17 15 17 17 0 8 -8 3 -21 -13z"/>
<path d="M996 1567 c3 -10 9 -15 12 -12 3 3 0 11 -7 18 -10 9 -11 8 -5 -6z"/>
<path d="M563 1165 c-38 -16 -53 -42 -53 -89 0 -53 18 -83 61 -100 43 -18 78
-10 116 26 49 46 32 132 -32 162 -40 19 -51 19 -92 1z m107 -47 c58 -63 -16
-157 -93 -117 -30 16 -37 28 -37 71 0 27 6 41 22 52 33 23 83 20 108 -6z"/>
<path d="M805 1045 c15 -47 57 -113 63 -96 4 13 -58 141 -68 141 -4 0 -2 -20
5 -45z"/>
<path d="M908 1014 c-9 -27 -15 -50 -13 -52 8 -8 36 60 33 79 -2 14 -8 5 -20
-27z"/>
<path d="M2021 1034 c0 -11 3 -14 6 -6 3 7 2 16 -1 19 -3 4 -6 -2 -5 -13z"/>
<path d="M2188 1005 c-4 -16 -10 -50 -14 -75 -62 -430 -409 -791 -849 -885
-11 -3 -44 -9 -74 -14 -29 -6 -56 -13 -59 -16 -15 -14 117 -2 199 19 379 97
689 407 785 785 16 63 24 117 22 156 -2 48 -4 54 -10 30z"/>
<path d="M2021 994 c0 -11 3 -14 6 -6 3 7 2 16 -1 19 -3 4 -6 -2 -5 -13z"/>
<path d="M1510 940 c-11 -7 -5 -8 20 -4 43 8 51 14 19 14 -13 0 -31 -5 -39
-10z"/>
<path d="M1555 892 c-30 -6 -55 -32 -55 -57 0 -34 32 -67 65 -67 35 0 55 25
55 68 0 36 -31 63 -65 56z m38 -26 c22 -17 22 -44 0 -68 -20 -22 -37 -23 -57
-2 -21 21 -20 61 2 73 23 14 33 13 55 -3z"/>
<path d="M1442 835 c0 -16 2 -22 5 -12 2 9 2 23 0 30 -3 6 -5 -1 -5 -18z"/>
<path d="M1486 757 c3 -10 9 -15 12 -12 3 3 0 11 -7 18 -10 9 -11 8 -5 -6z"/>
<path d="M1309 203 c-13 -16 -12 -17 4 -4 16 13 21 21 13 21 -2 0 -10 -8 -17
-17z"/>
</g>
</svg>
